<?xml version="1.0" standalone="no"?>
<!DOCTYPE svg PUBLIC "-//W3C//DTD SVG 20010904//EN"
 "http://www.w3.org/TR/2001/REC-SVG-20010904/DTD/svg10.dtd">
<svg version="1.0" xmlns="http://www.w3.org/2000/svg"
 width="1518.000000pt" height="398.000000pt" viewBox="0 0 1518.000000 398.000000"
 preserveAspectRatio="xMidYMid meet">

<g transform="translate(0.000000,398.000000) scale(0.100000,-0.100000)"
fill="#ffffff" stroke="none">
<path d="M8580 3442 c-23 -11 -39 -29 -48 -52 -18 -53 -5 -2753 14 -2791 8
-16 34 -36 66 -50 l53 -24 1163 -3 1163 -2 24 24 25 25 0 1345 0 1344 -30 73
c-32 81 -53 103 -108 119 -24 6 -429 10 -1162 10 -1051 0 -1127 -1 -1160 -18z
m638 -379 l-3 -358 -325 0 -325 0 0 341 c0 274 3 344 14 357 12 15 48 17 327
17 l314 0 -2 -357z m1666 332 l26 -24 0 -336 0 -335 -472 2 -473 3 -3 358 -2
357 448 0 449 0 27 -25z m105 -1481 c1 -1224 0 -1352 -15 -1358 -9 -3 -524 -6
-1145 -6 l-1130 0 -52 22 -52 23 1148 5 1149 5 24 28 24 28 1 1362 0 1362 24
-60 24 -60 0 -1351z m-1769 141 l0 -585 -330 0 -330 0 0 585 0 585 330 0 330
0 0 -585z m1690 -391 c0 -653 -3 -982 -10 -995 -10 -19 -30 -19 -830 -19
l-820 0 0 995 0 995 830 0 830 0 0 -976z"/>
<path d="M12770 2761 c-251 -37 -411 -181 -464 -418 -27 -123 -40 -113 137
-113 l154 0 12 66 c22 120 76 198 157 224 20 7 68 10 109 8 64 -3 78 -7 112
-34 60 -49 85 -102 86 -187 1 -97 -22 -162 -93 -255 -32 -42 -207 -225 -389
-406 l-331 -328 0 -74 0 -74 570 0 571 0 -3 123 -3 122 -328 3 -327 2 243 243
c134 133 265 271 292 307 237 319 142 686 -200 774 -74 19 -231 27 -305 17z"/>
<path d="M1211 2718 c-5 -13 -131 -363 -280 -778 -150 -415 -275 -758 -277
-762 -3 -5 81 -7 187 -6 l193 3 71 217 70 218 257 0 257 0 71 -220 71 -220
195 0 c107 0 193 4 190 8 -4 6 -485 1352 -543 1520 l-15 42 -219 0 c-218 0
-220 0 -228 -22z m304 -552 c43 -138 79 -256 82 -263 4 -10 -29 -13 -161 -13
-91 0 -166 4 -166 8 0 5 20 71 44 148 24 76 60 192 81 257 20 65 38 117 40
115 2 -1 38 -115 80 -252z"/>
<path d="M1970 2600 l0 -140 260 0 260 0 0 -645 0 -645 175 0 175 0 0 645 0
645 215 0 215 0 0 -645 0 -645 1310 0 1310 0 0 785 0 785 -180 0 -180 0 0
-635 0 -635 -380 0 -380 0 0 635 0 635 -1400 0 -1400 0 0 -140z m2440 -645 l0
-505 -395 0 -395 0 0 185 0 185 365 0 365 0 0 135 0 135 -362 2 -363 3 -3 183
-2 182 395 0 395 0 0 -505z"/>
<path d="M5940 1955 l0 -785 755 0 755 0 0 312 0 311 145 -6 c88 -4 157 -12
177 -20 68 -30 117 -109 137 -222 5 -33 17 -101 26 -151 8 -51 24 -122 35
-158 l21 -66 193 0 194 0 -28 52 c-38 71 -56 138 -80 298 -36 239 -75 313
-200 384 -25 14 -38 26 -30 26 34 0 143 63 188 107 87 87 122 201 103 336 -20
140 -91 239 -216 298 -118 55 -172 61 -617 66 l-408 5 0 -646 0 -646 -395 0
-395 0 0 185 0 185 365 0 365 0 0 135 0 135 -365 0 -365 0 0 185 0 185 390 0
390 0 0 140 0 140 -570 0 -570 0 0 -785z m1922 472 c72 -35 98 -82 98 -178 0
-86 -27 -134 -95 -168 -47 -25 -59 -26 -232 -29 l-183 -4 0 207 0 207 178 -4
c170 -3 179 -4 234 -31z"/>
<path d="M11150 2610 l0 -120 410 -2 410 -3 -351 -645 c-193 -355 -354 -651
-356 -657 -4 -10 33 -13 163 -13 l169 0 373 695 372 695 0 85 0 85 -595 0
-595 0 0 -120z"/>
</g>
</svg>

